<?xml version="1.0" encoding="UTF-8" standalone="no"?>
<!-- Creator: CorelDRAW X7 -->

<svg
   xmlns:dc="http://purl.org/dc/elements/1.1/"
   xmlns:cc="http://creativecommons.org/ns#"
   xmlns:rdf="http://www.w3.org/1999/02/22-rdf-syntax-ns#"
   xmlns:svg="http://www.w3.org/2000/svg"
   xmlns="http://www.w3.org/2000/svg"
   xmlns:sodipodi="http://sodipodi.sourceforge.net/DTD/sodipodi-0.dtd"
   xmlns:inkscape="http://www.inkscape.org/namespaces/inkscape"
   xml:space="preserve"
   width="195.83582"
   height="195.83582"
   version="1.1"
   style="fill-rule:evenodd"
   viewBox="0 0 5526.9999 5526.8831"
   id="svg2"
   inkscape:version="0.48.5 r10040"
   sodipodi:docname="logowhite.svg"><metadata
     id="metadata25"><rdf:RDF><cc:Work
         rdf:about=""><dc:format>image/svg+xml</dc:format><dc:type
           rdf:resource="http://purl.org/dc/dcmitype/StillImage" /></cc:Work></rdf:RDF></metadata><sodipodi:namedview
     pagecolor="#ffffff"
     bordercolor="#666666"
     borderopacity="1"
     objecttolerance="10"
     gridtolerance="10"
     guidetolerance="10"
     inkscape:pageopacity="0"
     inkscape:pageshadow="2"
     inkscape:window-width="2560"
     inkscape:window-height="1385"
     id="namedview23"
     showgrid="false"
     fit-margin-top="0"
     fit-margin-left="0"
     fit-margin-right="0"
     fit-margin-bottom="0"
     inkscape:zoom="3.7760032"
     inkscape:cx="127.67434"
     inkscape:cy="50.508007"
     inkscape:window-x="-3"
     inkscape:window-y="-3"
     inkscape:window-maximized="1"
     inkscape:current-layer="g19" /><defs
     id="defs4"><style
       type="text/css"
       id="style6">
    .fil0 {fill:#272835;fill-rule:nonzero}
    .fil1 {fill:white;fill-rule:nonzero}
   </style></defs><g
     id="РЎР_x00bb_РѕР_x2116__x0020_1"
     transform="translate(-7820,-4292.1492)"><metadata
       id="CorelCorpID_0Corel-Layer" /><g
       id="_233767216"><path
         class="fil0"
         d="m 13347,7056 c 0,1526 -1237,2763 -2764,2763 -1526,0 -2763,-1237 -2763,-2763 0,-1527 1237,-2764 2763,-2764 1527,0 2764,1237 2764,2764 z"
         id="path11"
         inkscape:connector-curvature="0"
         style="fill:#272835;fill-rule:nonzero" /><path
         class="fil0"
         d="m 11228,7705 c 0,94 -77,170 -171,170 -95,0 -171,-76 -171,-170 0,-95 76,-171 171,-171 94,0 171,76 171,171 z"
         id="path21"
         inkscape:connector-curvature="0"
         style="fill:#272835;fill-rule:nonzero" /></g><g
       transform="matrix(60.355826,0,0,60.355826,-2472.6155,-11212.953)"
       id="g19"><g
         id="g3048"
         transform="matrix(1.0140378,0,0,1.0140378,-2.3298973,-2.5076712)"><g
           id="g3053"><path
             style="fill:#ffffff"
             inkscape:connector-curvature="0"
             d="m 195.6,298.5 c 0,0 -2.3,8.1 -9.2,7.6 -6.9,-0.5 -1.9,13.2 1.8,10.5 1.2,-1 0.5,-4.4 2.8,-4.3 2.3,0.1 2,-2.2 1.9,-2.8 -0.1,-0.6 2.3,-6.3 4.5,-5.4"
             id="path27" /><path
             style="fill:#ffffff"
             d="m 39.5,9.65625 c 9.5,1.6 17.21875,9.81875 17.21875,19.71875 l 0,35.1875 c 0,0 -2.9,-2.1 -4,-2 -1.1,0.1 -2.9,1.9 -4,2 -1.5,0.1 -4.21875,-2 -5.71875,-2 -1.6,0 -4.28125,2 -5.78125,2 -1.4,0 -4,-2 -5.5,-2 -1.6,0 -4.4,2 -6,2 -1.5,0 -4,-2 -5.5,-2 -1.3,0 -4.5,2 -4.5,2 l 0,-35.1875 c 0.14971,-5.267829 1.53359,-8.337156 3.427144,-11.168652 0.900154,-1.346031 1.758661,-2.289535 3.125518,-3.48786 C 25.33198,12.286851 21.129674,10.394153 21.178924,6.5560313 21.002049,2.8679097 23.775927,2.4931786 24.178636,2.9905283 27.672424,8.4216914 37.633079,9.2708216 39.5,9.65625 z M 38.8125,30.375 c 0,3.037566 2.462434,5.5 5.5,5.5 3.037566,0 5.5,-2.462434 5.5,-5.5 0,-3.037566 -2.462434,-5.5 -5.5,-5.5 -3.037566,0 -5.5,2.462434 -5.5,5.5 z m -15.5,0.1875 c 0.1,3 2.5,5.40625 5.5,5.40625 3,0 5.4,-2.40625 5.5,-5.40625 -0.1,-3 -2.5,-5.40625 -5.5,-5.40625 -3,0 -5.4,2.40625 -5.5,5.40625 z M 42.71875,48.375 c 0,1.546397 1.234853,2.78125 2.78125,2.78125 1.546397,0 2.8125,-1.234853 2.8125,-2.78125 0,-1.546397 -1.266103,-2.8125 -2.8125,-2.8125 -1.546397,0 -2.78125,1.266103 -2.78125,2.8125 z"
             id="path21-0"
             inkscape:connector-curvature="0"
             sodipodi:nodetypes="cscscsssssccsccccssssscscscsssss"
             transform="translate(179.28571,265.42856)" /><path
             style="fill:#ffffff"
             inkscape:connector-curvature="0"
             d="m 235.6,298.5 c 0,0 2.3,8.1 9.2,7.6 7,-0.5 1.9,13.2 -1.8,10.5 -1.2,-1 -0.5,-4.4 -2.8,-4.3 -2.3,0.1 -2,-2.2 -1.9,-2.8 0.1,-0.6 -2.3,-6.3 -4.5,-5.4"
             id="path29" /></g></g></g></g></svg>